# xmcd CD database file
#
# Track frame offsets:
#	150
#	18252
#	36192
#	62600
#	79730
#	96465
#	111135
#	130662
#	148120
#
# Disc length: 2160 seconds
#
# Revision: 0
# Processed by: cddbd v1.5.2PL0 Copyright (c) Steve Scherf et al.
# Submitted via: CDex 1.70beta2
#
DISCID=74086e09
DTITLE=UC - March 2003  - Cty - Universal Country - March 2003
DYEAR=2003
DGENRE=Country
TTITLE0=Terri Clark - Three Mississippi
TTITLE1=Daryl Worley - Have You Forgotten?
TTITLE2=Bering Strain - Hearing Straight
TTITLE3=Jimmy Wayne - Stay gone
TTITLE4=Billy Currington - Walk A Little straighter
TTITLE5=Jeannie Kendall - Timeless and True Love
TTITLE6=Marcel - Tennessee
TTITLE7=Mark Wills - When You Think of Me
TTITLE8=Anthony Smith - Half A Man
EXTD=YEAR: 2003
EXTT0=
EXTT1=
EXTT2=
EXTT3=
EXTT4=
EXTT5=
EXTT6=
EXTT7=
EXTT8=
PLAYORDER=
